# xmcd CD database file
#
# Track frame offsets:
#	150
#	17723
#	42760
#	56919
#	71617
#	91655
#	109030
#	131023
#	144365
#	159002
#	174348
#	188875
#
# Disc length: 2776 seconds
#
# Revision: 0
# Processed by: cddbd v1.5.2PL0 Copyright (c) Steve Scherf et al.
# Submitted via: CDex 1.51
#
DISCID=950ad60c
DTITLE=Joe Country - Lift Up Your Hands
DYEAR=2004
DGENRE=Country
TTITLE0=Lift Up Your Hands And Praise The Lord
TTITLE1=No Embassy In Heaven
TTITLE2=Old Buddha
TTITLE3=Now I Have Everything
TTITLE4=Because He Lives
TTITLE5=I Know Who Holds Tomorrow
TTITLE6=God Leads Us Along
TTITLE7=Its Time To Cross Over
TTITLE8=I Can't Forget Mama
TTITLE9=Medley Of Psalms
TTITLE10=Joe Country
TTITLE11=I Know Who Holds Tomorrrow Remix
EXTD=YEAR: 2004
EXTT0=
EXTT1=
EXTT2=
EXTT3=
EXTT4=
EXTT5=
EXTT6=
EXTT7=
EXTT8=
EXTT9=
EXTT10=
EXTT11=
PLAYORDER=
